<?xml version="1.0" standalone="no"?>
<!DOCTYPE svg PUBLIC "-//W3C//DTD SVG 20010904//EN"
 "http://www.w3.org/TR/2001/REC-SVG-20010904/DTD/svg10.dtd">
<svg version="1.0" xmlns="http://www.w3.org/2000/svg"
 width="256.000000pt" height="256.000000pt" viewBox="0 0 256.000000 256.000000"
 preserveAspectRatio="xMidYMid meet">
<metadata>
Created by potrace 1.11, written by Peter Selinger 2001-2013
</metadata>
<g transform="translate(0.000000,256.000000) scale(0.100000,-0.100000)"
fill="#000000" stroke="none">
<path d="M1140 2553 c-194 -21 -407 -100 -580 -216 -96 -64 -273 -241 -337
-337 -296 -442 -296 -998 0 -1440 64 -96 241 -273 337 -337 442 -296 998 -296
1440 0 96 64 273 241 337 337 296 442 296 998 0 1440 -64 96 -241 273 -337
337 -252 169 -566 248 -860 216z m313 -208 c230 -40 408 -130 576 -290 374
-358 437 -937 149 -1375 -68 -104 -191 -225 -307 -301 -164 -109 -336 -165
-537 -176 -382 -20 -741 162 -955 486 -238 360 -237 826 3 1191 96 146 294
315 450 384 193 85 424 115 621 81z"/>
<path d="M1707 1898 c-13 -18 -154 -224 -313 -458 -158 -234 -300 -442 -315
-462 l-26 -38 -113 204 -112 204 -62 -34 c-33 -19 -71 -40 -84 -46 -14 -7 -22
-18 -19 -27 2 -9 87 -165 189 -348 l185 -332 422 619 c232 341 424 626 427
634 4 10 -19 31 -70 65 -41 28 -77 51 -80 51 -3 0 -16 -15 -29 -32z"/>
</g>
</svg>
